<svg width="102" height="88" viewBox="0 0 102 88" fill="none" xmlns="http://www.w3.org/2000/svg">
<path d="M18.1 73.11C28.19 79.65 44 79.66 60.47 71.75C69.9139 67.1736 78.3174 60.7067 85.16 52.75L88.29 32H12.19C12.12 32.14 12.05 32.28 11.99 32.42L18.1 73.11Z" fill="#1BBACF"/>
<path d="M60.4699 71.75C43.9999 79.66 28.1899 79.65 18.0999 73.11C15.3874 71.3595 13.063 69.0709 11.2707 66.3858C9.47835 63.7008 8.25622 60.6764 7.67992 57.5C6.09993 49.66 7.80992 40.88 11.9899 32.39L11.9199 31.97H12.1899C12.5199 31.32 12.8599 30.66 13.1899 29.97C3.46993 41.86 -1.58007 55.77 0.789925 67.58C4.34993 85.3 23.4099 92.3 45.2499 85.18C48.1006 84.2479 50.8866 83.1288 53.5899 81.83C66.5131 75.6319 77.4069 65.8861 84.9999 53.73L85.1399 52.79C78.2993 60.7301 69.903 67.183 60.4699 71.75Z" fill="#294159"/>
<path d="M51.28 72.27C50.7602 72.2765 50.2504 72.1264 49.817 71.8393C49.3836 71.5522 49.0467 71.1412 48.85 70.66L43.51 58L31.62 56.05C31.0414 55.9591 30.5095 55.6784 30.1079 55.2521C29.7063 54.8257 29.4579 54.2779 29.4018 53.6949C29.3457 53.112 29.485 52.5269 29.7979 52.0317C30.1107 51.5366 30.5794 51.1596 31.13 50.96L56.88 41.42C57.1775 41.3089 57.4924 41.2513 57.81 41.25C58.2126 41.2514 58.6096 41.3445 58.9708 41.5222C59.332 41.6999 59.648 41.9576 59.8948 42.2757C60.1415 42.5938 60.3126 42.9639 60.3949 43.358C60.4773 43.752 60.4687 44.1597 60.37 44.55L53.85 70.25C53.7117 70.8253 53.3821 71.3366 52.9152 71.7C52.4482 72.0634 51.8716 72.2573 51.28 72.25V72.27Z" fill="#294159"/>
<path d="M57.81 42.78C57.9843 42.7804 58.1561 42.8207 58.3123 42.8978C58.4685 42.975 58.6049 43.0868 58.7111 43.2249C58.8174 43.363 58.8905 43.5236 58.925 43.6944C58.9595 43.8651 58.9544 44.0415 58.91 44.21L52.4 69.91C52.3388 70.1592 52.1945 70.3802 51.9909 70.5365C51.7874 70.6928 51.5366 70.7751 51.28 70.77C51.0632 70.7638 50.8529 70.6942 50.6752 70.5698C50.4975 70.4454 50.3601 70.2716 50.28 70.07L44.86 57.26C44.7853 57.0817 44.6661 56.9255 44.5138 56.8065C44.3614 56.6874 44.1811 56.6094 43.99 56.58L31.91 54.58C31.6611 54.5373 31.4331 54.4138 31.2613 54.2286C31.0895 54.0434 30.9835 53.8068 30.9596 53.5553C30.9357 53.3039 30.9953 53.0515 31.1291 52.8373C31.2629 52.623 31.4636 52.4588 31.7 52.37L57.4601 42.83C57.588 42.7825 57.7236 42.7588 57.86 42.76M57.86 39.76C57.3653 39.762 56.8747 39.85 56.41 40.02L30.65 49.56C29.7851 49.8741 29.0491 50.4669 28.5578 51.2449C28.0665 52.023 27.8477 52.9423 27.9358 53.8583C28.024 54.7743 28.4141 55.635 29.0448 56.3051C29.6755 56.9752 30.5111 57.4166 31.42 57.56L42.5 59.37L47.5 71.24C47.8366 72.0402 48.4161 72.7145 49.1568 73.1673C49.8975 73.6202 50.7617 73.8287 51.6274 73.7635C52.4931 73.6983 53.3164 73.3626 53.9808 72.8038C54.6453 72.2451 55.1172 71.4916 55.33 70.65L61.8501 44.95C62.0096 44.3397 62.0258 43.7008 61.8974 43.0833C61.769 42.4657 61.4996 41.8862 61.11 41.39C60.7224 40.8916 60.2267 40.4877 59.6603 40.2088C59.0938 39.9299 58.4714 39.7833 57.84 39.78L57.86 39.76Z" fill="#F4F4F4"/>
<path d="M52.45 85C52.45 85 69.9899 77.53 82.6199 62.8C92.3499 51.47 93.03 41.3 93.02 41.27C96.54 52.36 91.75 63.8 83.89 71.76C79.8536 75.8497 75.0616 79.1168 69.78 81.38C67.2412 82.4085 64.618 83.2148 61.94 83.79C59.17 84.38 52.45 85 52.45 85Z" fill="#14E3FF"/>
<path d="M91.0801 75.88C91.0801 75.88 96.5801 64.78 97.0201 53.21C97.3501 44.31 93.8301 40.11 93.8101 40.1C99.6801 42.68 101.73 49.3 101.01 56.04C100.603 59.6308 99.5632 63.1212 97.9401 66.35C97.1225 67.953 96.1831 69.4908 95.1301 70.95C94.0501 72.5 91.0801 75.88 91.0801 75.88Z" fill="#294159"/>
<path d="M4.1001 23.86V32C4.1001 38 9.2501 42.93 15.6001 42.93C21.9501 42.93 27.1001 38.04 27.1001 32V23.85L4.1001 23.86Z" fill="#203544"/>
<path d="M27.1001 23.86V32C27.1001 38 32.2501 42.93 38.6001 42.93C41.5744 43.0052 44.4568 41.896 46.6134 39.8463C48.77 37.7966 50.0241 34.9743 50.1001 32V23.85L27.1001 23.86Z" fill="#0BCBE5"/>
<path d="M50.1001 23.86V32C50.1001 38 55.2501 42.93 61.6101 42.93C67.9601 42.93 73.1101 38.04 73.1101 32V23.85L50.1001 23.86Z" fill="#203544"/>
<path d="M73.1101 23.86V32C73.1101 38 78.2601 42.93 84.6101 42.93C90.9601 42.93 96.1101 38.04 96.1101 32V23.85L73.1101 23.86Z" fill="#0BCBE6"/>
<path d="M24.9501 0.359985L4.1001 23.86H27.1001L36.8101 0.359985H24.9501Z" fill="#294159"/>
<path d="M49.21 0.359985L50.11 23.86H73.11L61.96 0.359985H49.21Z" fill="#294159"/>
<path d="M36.8101 0.359985L27.1001 23.86H50.1101L49.2101 0.359985H36.8101Z" fill="#14E3FF"/>
<path d="M72.6199 0.359985H61.96L73.11 23.86H96.11L72.6199 0.359985Z" fill="#14E3FF"/>
</svg>
